<svg width="107" height="32" viewBox="0 0 107 32" fill="none" xmlns="http://www.w3.org/2000/svg">
<g clip-path="url(#clip0_47_1221)">
<mask id="mask0_47_1221" style="mask-type:luminance" maskUnits="userSpaceOnUse" x="0" y="0" width="107" height="23">
<path d="M106.899 0H0V22.6431H106.899V0Z" fill="white"/>
</mask>
<g mask="url(#mask0_47_1221)">
<path fill-rule="evenodd" clip-rule="evenodd" d="M105.436 0.340332V19.0674C105.436 19.7127 105.529 21.0122 106.895 21.0564L106.864 22.1923H98.0331V21.158C98.7668 20.853 99.4121 20.5834 99.4121 19.0718V7.27072C99.4121 6.21437 98.8729 4.61436 97.379 4.31381L105.436 0.340332Z" fill="white"/>
<path fill-rule="evenodd" clip-rule="evenodd" d="M77.6265 0.799988V6.71822H80.9635L80.5569 8.11049H77.6575L77.6221 18.0199C77.6177 19.1823 78.8022 20.1193 80.9238 19.8541C80.2608 21.3039 78.674 22.3072 76.7558 22.3337C74.5591 22.3602 72.9945 21.2641 72.3094 19.6729C71.779 18.4309 71.7481 16.8751 71.7481 15.3945V8.11049H70.1171L77.6265 0.799988Z" fill="white"/>
<path fill-rule="evenodd" clip-rule="evenodd" d="M53.958 10.5591C52.7558 8.25634 50.0155 9.0696 50.0243 10.9525L50.0641 18.6431C50.0729 20.5657 52.8 21.0696 53.958 19.0099V10.5591ZM59.9691 1.16684V18.5061C59.9691 20.3315 59.832 20.9503 61.5602 21.3215V22.1481L53.8077 22.1525L53.7326 20.8928C52.526 21.9492 51.5492 22.5591 49.6309 22.4972C46.2232 22.3867 44.3624 18.0508 44.4994 14.484C44.6851 9.70165 48.6497 4.52154 53.7724 8.33148C53.5956 6.30717 53.1713 5.29502 51.9337 4.20772L59.9691 1.16684Z" fill="white"/>
<path fill-rule="evenodd" clip-rule="evenodd" d="M34.2542 6.8641L34.3293 8.65857C35.474 7.58454 36.8486 6.78454 38.5945 6.8641C42.4796 7.04089 43.6155 10.1083 43.6155 13.0387V18.8995C43.6155 20.0619 43.7392 20.5967 43.9735 20.8796C44.2166 21.1669 44.716 21.3481 45.4807 21.4232V22.1879H37.8652L37.7856 11.8586C37.7724 10.2895 36.9768 9.67957 36.3448 9.63095C35.3238 9.55581 34.789 9.9536 34.2895 10.8287V18.895C34.2895 20.0221 34.4088 20.5879 34.6475 20.8884C34.8906 21.1934 35.3326 21.3392 35.9912 21.4188V22.1834H26.842V21.4188C27.5669 21.3525 27.8586 21.3348 28.168 20.9901C28.3757 20.7558 28.4818 20.0575 28.4818 18.895V12.61C28.4818 12.1238 27.9426 10.453 26.7271 10.3116L34.2542 6.8641Z" fill="white"/>
<path fill-rule="evenodd" clip-rule="evenodd" d="M7.59337 8.89282V19.1602C7.59337 20.1724 7.69945 20.8088 7.91602 21.0652C8.20774 21.41 8.72486 21.5912 9.45414 21.6133V22.1923H0.265193V21.5514C0.525967 21.5116 0.733702 21.4541 0.883978 21.3746C1.16243 21.2332 1.36133 21.0298 1.47182 20.7691C1.5779 20.5083 1.63094 19.9779 1.63094 19.1558V8.89282H0C0.481768 7.65967 1.7768 6.042 3.16022 4.57459C4.32265 3.34144 5.61768 2.28509 6.92155 1.56907C7.81436 1.07846 8.70718 0.711609 9.56464 0.711609C11.6685 0.711609 13.5381 1.80332 13.5381 3.84089C13.5381 5.021 12.305 5.6663 11.253 5.6663C10.4354 5.6663 9.6 5.16686 9.28177 4.30056C9.03425 3.62874 8.6674 2.71382 7.42099 2.71382C6.13039 2.8641 6.21436 3.3768 6.04199 3.6641C5.35691 4.79559 6.76243 6.6652 7.59337 7.61548H10.1967V8.89282H7.59337Z" fill="white"/>
<path fill-rule="evenodd" clip-rule="evenodd" d="M22.5768 7.69062C21.2729 7.01438 19.863 6.67847 18.347 6.67847C15.8276 6.67847 13.8387 7.47847 12.3889 9.08731C10.9436 10.6917 10.2188 12.6453 10.2188 14.7359C10.2188 16.8265 10.926 18.6652 12.3447 20.2564C13.7547 21.8431 15.726 22.6431 18.4 22.6431C21.074 22.6431 23.1602 21.7724 24.6807 20.031C25.9359 18.5945 26.5635 16.8089 26.5635 14.6696C26.5635 13.1845 26.2232 11.8188 25.547 10.5768C24.8707 9.3304 23.8807 8.36686 22.5768 7.69062ZM18.4707 7.7746H18.3204C17.1182 7.77902 16.1459 8.75139 16.1459 9.9536V19.3724C16.1503 20.5702 17.1182 21.5426 18.3204 21.547H18.4707C19.6685 21.547 20.6409 20.5746 20.6453 19.3724V9.9536C20.6409 8.75139 19.6685 7.77902 18.4707 7.7746Z" fill="white"/>
<path fill-rule="evenodd" clip-rule="evenodd" d="M69.5514 6.62982L69.5558 18.9039C69.5558 20.0088 69.3834 21.0431 71.0232 21.4276V22.1923H62.2762V21.4276C63.8188 20.9679 63.7481 20.1768 63.7481 18.9039V12.6099C63.7481 12.1237 63.1779 10.1127 61.9624 9.97126L69.5514 6.62982Z" fill="white"/>
<path fill-rule="evenodd" clip-rule="evenodd" d="M66.4309 0C68.3403 0 69.3304 1.4674 69.2994 2.91271C69.2685 4.31381 68.2784 5.77238 66.4309 5.77238C64.5834 5.77238 63.5271 4.26961 63.5315 2.84641C63.5359 1.4232 64.5657 0 66.4309 0Z" fill="white"/>
<path fill-rule="evenodd" clip-rule="evenodd" d="M89.4144 19.032V13.2066C87.7746 13.7061 85.958 16.3978 86.8862 18.6475C87.3414 19.7525 88.716 19.4166 89.4144 19.032ZM89.9934 20.0707C89.1182 21.1713 87.3326 22.0685 85.5823 22.0994C83.6022 22.1304 81.5381 20.8133 81.5381 18.1436C81.5381 17.2597 81.9492 16.0619 83.2574 15.0276C84.663 13.9138 86.9569 12.7691 89.821 11.7878C89.821 11.2354 89.9492 10.1215 89.79 9.18894C89.6309 8.26076 89.1536 7.45192 88.1503 7.45634C85.9624 7.4696 86.5149 10.2762 86.2674 11.1204C86.0994 11.695 85.6442 12.6497 84.4022 12.6497C82.5282 12.6497 82.2851 11.3856 82.2497 10.6696C82.1039 7.63314 86.2188 6.27181 89.5028 6.40441C92.0309 6.51049 94.705 7.76574 95.3989 9.56021C95.5713 10.011 95.6508 11.0497 95.6508 12.6718V18.5193C95.6508 19.611 96.0486 20.7602 97.6442 20.4022C95.9116 22.7182 91.5226 22.4574 89.9934 20.0707Z" fill="white"/>
</g>
<path d="M50.2197 30.3779V25.6205H53.2672V26.3429H51.0815V27.6345H53.0581V28.357H51.0815V30.3779H50.2197ZM58.6303 27.9992C58.6303 28.5118 58.5344 28.9509 58.3425 29.3163C58.152 29.6802 57.8917 29.959 57.562 30.1526C57.2336 30.3462 56.861 30.443 56.4446 30.443C56.0278 30.443 55.6548 30.3462 55.3251 30.1526C54.9967 29.9574 54.7363 29.6779 54.5445 29.314C54.354 28.9485 54.2586 28.5102 54.2586 27.9992C54.2586 27.4866 54.354 27.0484 54.5445 26.6844C54.7363 26.3189 54.9967 26.0394 55.3251 25.8458C55.6548 25.6522 56.0278 25.5555 56.4446 25.5555C56.861 25.5555 57.2336 25.6522 57.562 25.8458C57.8917 26.0394 58.152 26.3189 58.3425 26.6844C58.5344 27.0484 58.6303 27.4866 58.6303 27.9992ZM57.764 27.9992C57.764 27.6384 57.7074 27.3341 57.5942 27.0863C57.4829 26.837 57.3282 26.6488 57.1297 26.5218C56.9317 26.3933 56.7032 26.329 56.4446 26.329C56.1861 26.329 55.9576 26.3933 55.7591 26.5218C55.5611 26.6488 55.4055 26.837 55.2924 27.0863C55.181 27.3341 55.1253 27.6384 55.1253 27.9992C55.1253 28.36 55.181 28.6651 55.2924 28.9144C55.4055 29.1622 55.5611 29.3504 55.7591 29.4789C55.9576 29.6059 56.1861 29.6694 56.4446 29.6694C56.7032 29.6694 56.9317 29.6059 57.1297 29.4789C57.3282 29.3504 57.4829 29.1622 57.5942 28.9144C57.7074 28.6651 57.764 28.36 57.764 27.9992ZM64.0234 27.9992C64.0234 28.5118 63.9275 28.9509 63.7352 29.3163C63.5447 29.6802 63.2844 29.959 62.9547 30.1526C62.6263 30.3462 62.2541 30.443 61.8373 30.443C61.421 30.443 61.0475 30.3462 60.7178 30.1526C60.3894 29.9574 60.1291 29.6779 59.9372 29.314C59.7467 28.9485 59.6517 28.5102 59.6517 27.9992C59.6517 27.4866 59.7467 27.0484 59.9372 26.6844C60.1291 26.3189 60.3894 26.0394 60.7178 25.8458C61.0475 25.6522 61.421 25.5555 61.8373 25.5555C62.2541 25.5555 62.6263 25.6522 62.9547 25.8458C63.2844 26.0394 63.5447 26.3189 63.7352 26.6844C63.9275 27.0484 64.0234 27.4866 64.0234 27.9992ZM63.1567 27.9992C63.1567 27.6384 63.1005 27.3341 62.9874 27.0863C62.8756 26.837 62.7209 26.6488 62.5229 26.5218C62.3244 26.3933 62.0959 26.329 61.8373 26.329C61.5788 26.329 61.3503 26.3933 61.1523 26.5218C60.9538 26.6488 60.7982 26.837 60.6851 27.0863C60.5737 27.3341 60.518 27.6384 60.518 27.9992C60.518 28.36 60.5737 28.6651 60.6851 28.9144C60.7982 29.1622 60.9538 29.3504 61.1523 29.4789C61.3503 29.6059 61.5788 29.6694 61.8373 29.6694C62.0959 29.6694 62.3244 29.6059 62.5229 29.4789C62.7209 29.3504 62.8756 29.1622 62.9874 28.9144C63.1005 28.6651 63.1567 28.36 63.1567 27.9992ZM66.7775 30.3779H65.1651V25.6205H66.8097C67.2822 25.6205 67.688 25.7157 68.027 25.9062C68.3677 26.0952 68.6294 26.3669 68.8124 26.7216C68.9949 27.0762 69.0864 27.5006 69.0864 27.9946C69.0864 28.4901 68.994 28.916 68.8097 29.2722C68.6272 29.6284 68.3633 29.9017 68.0177 30.0922C67.6738 30.2827 67.2605 30.3779 66.7775 30.3779ZM66.027 29.6322H66.7355C67.067 29.6322 67.3432 29.5718 67.5646 29.4511C67.7861 29.3287 67.9527 29.1467 68.0641 28.9052C68.1759 28.662 68.2316 28.3585 68.2316 27.9946C68.2316 27.6306 68.1759 27.3286 68.0641 27.0886C67.9527 26.847 67.7878 26.6666 67.5695 26.5474C67.3525 26.4266 67.0833 26.3661 66.7611 26.3661H66.027V29.6322ZM72.1821 25.6205H73.2367L74.6488 29.0678H74.7045L76.1171 25.6205H77.1717V30.3779H76.3448V27.1095H76.3006L74.9856 30.364H74.3677L73.0528 27.1025H73.0091V30.3779H72.1821V25.6205ZM79.048 30.3779H78.1282L79.8029 25.6205H80.8667L82.5441 30.3779H81.6243L80.3536 26.5961H80.3165L79.048 30.3779ZM79.0785 28.5126H81.5872V29.2048H79.0785V28.5126ZM87.4073 25.6205V30.3779H86.6409L84.3991 27.1374H84.3598V30.3779H83.4979V25.6205H84.2692L86.5083 28.8633H86.5503V25.6205H87.4073ZM89.2844 30.3779H88.3646L90.0393 25.6205H91.1032L92.7805 30.3779H91.8603L90.5901 26.5961H90.5529L89.2844 30.3779ZM89.3145 28.5126H91.8232V29.2048H89.3145V28.5126ZM96.6975 27.1397C96.659 27.0143 96.6055 26.902 96.5375 26.8029C96.4707 26.7022 96.3903 26.6163 96.2957 26.545C96.2029 26.4738 96.0959 26.4204 95.9752 26.3848C95.8546 26.3476 95.7229 26.329 95.5801 26.329C95.3246 26.329 95.097 26.3933 94.8972 26.5218C94.6975 26.6503 94.5405 26.8393 94.4256 27.0886C94.3129 27.3364 94.2564 27.6384 94.2564 27.9946C94.2564 28.3538 94.3129 28.6581 94.4256 28.9075C94.5388 29.1568 94.6961 29.3465 94.8972 29.4766C95.0988 29.6051 95.3326 29.6694 95.5987 29.6694C95.8404 29.6694 96.0495 29.6229 96.2259 29.53C96.404 29.4371 96.5414 29.3055 96.6373 29.1351C96.7333 28.9632 96.7814 28.7619 96.7814 28.5311L96.9764 28.5614H95.6849V27.8877H97.615V28.4591C97.615 28.8664 97.5284 29.2187 97.3551 29.5161C97.1814 29.8134 96.9432 30.0426 96.6396 30.2037C96.3359 30.3632 95.9876 30.443 95.5943 30.443C95.1558 30.443 94.7713 30.3446 94.4398 30.1479C94.1101 29.9497 93.8519 29.6686 93.6663 29.3047C93.482 28.9392 93.3896 28.5056 93.3896 28.0038C93.3896 27.6198 93.444 27.2768 93.5523 26.9748C93.6623 26.6728 93.8157 26.4165 94.0124 26.2059C94.2091 25.9937 94.4398 25.8327 94.7045 25.7227C94.9693 25.6112 95.2575 25.5555 95.5686 25.5555C95.832 25.5555 96.0773 25.5942 96.305 25.6716C96.5326 25.7475 96.7346 25.8559 96.9114 25.9968C97.0895 26.1377 97.2358 26.305 97.3503 26.4986C97.4652 26.6922 97.5399 26.9059 97.5757 27.1397H96.6975ZM98.7757 30.3779V25.6205H101.87V26.3429H99.6376V27.6345H101.71V28.357H99.6376V29.6555H101.888V30.3779H98.7757ZM103.076 30.3779V25.6205H104.86C105.226 25.6205 105.532 25.684 105.78 25.811C106.029 25.9379 106.217 26.1161 106.344 26.3452C106.473 26.5729 106.537 26.8385 106.537 27.142C106.537 27.4471 106.472 27.7119 106.342 27.9365C106.213 28.1595 106.024 28.3322 105.773 28.4545C105.522 28.5753 105.214 28.6357 104.849 28.6357H103.578V27.9202H104.732C104.946 27.9202 105.121 27.8908 105.257 27.832C105.394 27.7715 105.494 27.6841 105.559 27.5695C105.626 27.4533 105.659 27.3108 105.659 27.142C105.659 26.9732 105.626 26.8292 105.559 26.71C105.493 26.5892 105.391 26.4978 105.255 26.4358C105.119 26.3724 104.943 26.3406 104.728 26.3406H103.938V30.3779H103.076ZM105.534 28.2222L106.712 30.3779H105.75L104.593 28.2222H105.534Z" fill="white"/>
</g>
<defs>
<clipPath id="clip0_47_1221">
<rect width="106.917" height="32" fill="white"/>
</clipPath>
</defs>
</svg>
