<svg width="500" height="150" viewBox="0 0 500 150" fill="none" xmlns="http://www.w3.org/2000/svg">
<mask id="mask0_62_11689" style="mask-type:luminance" maskUnits="userSpaceOnUse" x="0" y="0" width="500" height="106">
<path d="M499.917 0H0V105.891H499.917V0Z" fill="white"/>
</mask>
<g mask="url(#mask0_62_11689)">
<path fill-rule="evenodd" clip-rule="evenodd" d="M493.076 1.59155V89.1691C493.076 92.1868 493.51 98.2637 499.897 98.4704L499.752 103.783H458.454V98.9458C461.885 97.5196 464.903 96.2588 464.903 89.1897V34.0016C464.903 29.0616 462.381 21.5791 455.395 20.1736L493.076 1.59155Z" fill="#D32E16"/>
<path fill-rule="evenodd" clip-rule="evenodd" d="M363.022 3.74121V31.4179H378.628L376.726 37.9289H363.167L363.001 84.2704C362.981 89.7065 368.52 94.0885 378.442 92.8483C375.341 99.6279 367.921 104.32 358.95 104.444C348.677 104.568 341.36 99.4419 338.156 92.0008C335.676 86.1926 335.531 78.9169 335.531 71.9926V37.9289H327.904L363.022 3.74121Z" fill="#D32E16"/>
<path fill-rule="evenodd" clip-rule="evenodd" d="M252.336 49.3799C246.714 38.611 233.898 42.4142 233.94 51.2195L234.126 87.1848C234.167 96.1761 246.92 98.5324 252.336 88.9004V49.3799ZM280.446 5.45679V86.544C280.446 95.0806 279.806 97.9744 287.888 99.7106V103.576L251.633 103.597L251.281 97.7057C245.639 102.646 241.071 105.498 232.1 105.209C216.164 104.692 207.462 84.415 208.103 67.7346C208.971 45.37 227.511 21.1451 251.468 38.9624C250.641 29.4956 248.656 24.7623 242.869 19.6775L280.446 5.45679Z" fill="#D32E16"/>
<path fill-rule="evenodd" clip-rule="evenodd" d="M160.19 32.1001L160.542 40.492C165.895 35.4693 172.323 31.728 180.488 32.1001C198.656 32.9269 203.969 47.2717 203.969 60.9757V88.3837C203.969 93.8198 204.547 96.3208 205.643 97.6437C206.78 98.9872 209.115 99.8347 212.691 100.186V103.762H177.077L176.705 55.4568C176.643 48.1191 172.923 45.2667 169.967 45.0393C165.192 44.6879 162.691 46.5482 160.356 50.6408V88.363C160.356 93.6338 160.914 96.2795 162.03 97.685C163.167 99.1113 165.234 99.7934 168.313 100.165V103.741H125.527V100.165C128.917 99.8554 130.281 99.7727 131.728 98.1604C132.699 97.0649 133.196 93.7991 133.196 88.363V58.9707C133.196 56.697 130.674 48.8839 124.99 48.2225L160.19 32.1001Z" fill="#D32E16"/>
<path fill-rule="evenodd" clip-rule="evenodd" d="M35.5105 41.5875V89.6032C35.5105 94.3366 36.0066 97.313 37.0194 98.5118C38.3836 100.124 40.802 100.972 44.2125 101.075V103.783H1.24018V100.785C2.45969 100.599 3.43117 100.331 4.13394 99.9587C5.43613 99.2973 6.36627 98.3465 6.88301 97.127C7.37908 95.9075 7.62712 93.4271 7.62712 89.5825V41.5875H0C2.253 35.8206 8.30922 28.2555 14.7788 21.3932C20.215 15.6264 26.2712 10.6863 32.3687 7.3378C36.544 5.04347 40.7193 3.32788 44.7292 3.32788C54.568 3.32788 63.3113 8.4333 63.3113 17.962C63.3113 23.4808 57.5444 26.4986 52.6251 26.4986C48.8012 26.4986 44.8946 24.1629 43.4064 20.1117C42.2489 16.9699 40.5333 12.6913 34.7044 12.6913C28.6689 13.394 29.0616 15.7917 28.2555 17.1352C25.0517 22.4267 31.6246 31.17 35.5105 35.6139H47.685V41.5875H35.5105Z" fill="#D32E16"/>
<path fill-rule="evenodd" clip-rule="evenodd" d="M105.581 35.9653C99.4832 32.8028 92.8896 31.2319 85.7999 31.2319C74.0182 31.2319 64.7168 34.9731 57.9371 42.4969C51.1782 50 47.7883 59.136 47.7883 68.9128C47.7883 78.6896 51.0955 87.2882 57.7305 94.7292C64.3241 102.15 73.5428 105.891 86.0479 105.891C98.5531 105.891 108.309 101.819 115.42 93.6751C121.29 86.9574 124.225 78.6069 124.225 68.6027C124.225 61.6577 122.633 55.2708 119.471 49.4626C116.308 43.6338 111.678 39.1278 105.581 35.9653ZM86.3787 36.358H85.6759C80.0537 36.3787 75.5064 40.926 75.5064 46.5482V90.5953C75.5271 96.1968 80.0537 100.744 85.6759 100.765H86.3787C91.9801 100.765 96.5275 96.2175 96.5481 90.5953V46.5482C96.5275 40.926 91.9801 36.3787 86.3787 36.358Z" fill="#D32E16"/>
<path fill-rule="evenodd" clip-rule="evenodd" d="M325.258 31.0045L325.279 88.4043C325.279 93.5717 324.473 98.4084 332.141 100.207V103.783H291.236V100.207C298.45 98.057 298.119 94.3572 298.119 88.4043V58.9706C298.119 56.697 295.453 47.2922 289.768 46.6308L325.258 31.0045Z" fill="#D32E16"/>
<path fill-rule="evenodd" clip-rule="evenodd" d="M310.666 0C319.595 0 324.225 6.86234 324.08 13.6213C323.936 20.1736 319.306 26.9946 310.666 26.9946C302.026 26.9946 297.086 19.9669 297.106 13.3113C297.127 6.65564 301.943 0 310.666 0Z" fill="#D32E16"/>
<path fill-rule="evenodd" clip-rule="evenodd" d="M418.148 89.0037V61.761C410.48 64.0967 401.984 76.6846 406.325 87.2054C408.454 92.3729 414.882 90.802 418.148 89.0037ZM420.856 93.8611C416.763 99.0079 408.413 103.204 400.227 103.348C390.967 103.493 381.315 97.3336 381.315 84.8491C381.315 80.7152 383.237 75.1137 389.355 70.277C395.928 65.0682 406.656 59.7148 420.05 55.1261C420.05 52.5424 420.649 47.3336 419.905 42.9723C419.161 38.6317 416.928 34.8491 412.236 34.8698C402.005 34.9318 404.589 48.057 403.431 52.005C402.646 54.692 400.517 59.1567 394.709 59.1567C385.945 59.1567 384.808 53.2451 384.642 49.8966C383.96 35.6966 403.204 29.3303 418.561 29.9504C430.384 30.4465 442.89 36.3167 446.135 44.7086C446.941 46.8169 447.313 51.6742 447.313 59.26V86.606C447.313 91.7114 449.173 97.0856 456.635 95.4113C448.532 106.242 428.007 105.023 420.856 93.8611Z" fill="#D32E16"/>
</g>
<path d="M234.853 142.063V119.815H249.105V123.193H238.884V129.233H248.127V132.612H238.884V142.063H234.853ZM274.186 130.939C274.186 133.336 273.737 135.389 272.84 137.098C271.949 138.8 270.732 140.104 269.19 141.009C267.654 141.914 265.912 142.367 263.964 142.367C262.015 142.367 260.271 141.914 258.729 141.009C257.193 140.096 255.976 138.789 255.079 137.087C254.188 135.378 253.741 133.329 253.741 130.939C253.741 128.541 254.188 126.492 255.079 124.79C255.976 123.081 257.193 121.774 258.729 120.868C260.271 119.963 262.015 119.51 263.964 119.51C265.912 119.51 267.654 119.963 269.19 120.868C270.732 121.774 271.949 123.081 272.84 124.79C273.737 126.492 274.186 128.541 274.186 130.939ZM270.134 130.939C270.134 129.251 269.87 127.828 269.341 126.669C268.82 125.503 268.096 124.624 267.168 124.03C266.242 123.429 265.174 123.128 263.964 123.128C262.755 123.128 261.687 123.429 260.759 124.03C259.833 124.624 259.105 125.503 258.576 126.669C258.055 127.828 257.795 129.251 257.795 130.939C257.795 132.626 258.055 134.053 258.576 135.219C259.105 136.378 259.833 137.258 260.759 137.859C261.687 138.453 262.755 138.749 263.964 138.749C265.174 138.749 266.242 138.453 267.168 137.859C268.096 137.258 268.82 136.378 269.341 135.219C269.87 134.053 270.134 132.626 270.134 130.939ZM299.407 130.939C299.407 133.336 298.958 135.389 298.059 137.098C297.168 138.8 295.951 140.104 294.409 141.009C292.873 141.914 291.133 142.367 289.184 142.367C287.236 142.367 285.49 141.914 283.948 141.009C282.412 140.096 281.195 138.789 280.298 137.087C279.407 135.378 278.962 133.329 278.962 130.939C278.962 128.541 279.407 126.492 280.298 124.79C281.195 123.081 282.412 121.774 283.948 120.868C285.49 119.963 287.236 119.51 289.184 119.51C291.133 119.51 292.873 119.963 294.409 120.868C295.951 121.774 297.168 123.081 298.059 124.79C298.958 126.492 299.407 128.541 299.407 130.939ZM295.353 130.939C295.353 129.251 295.091 127.828 294.562 126.669C294.039 125.503 293.315 124.624 292.389 124.03C291.461 123.429 290.393 123.128 289.184 123.128C287.974 123.128 286.906 123.429 285.98 124.03C285.052 124.624 284.324 125.503 283.795 126.669C283.274 127.828 283.014 129.251 283.014 130.939C283.014 132.626 283.274 134.053 283.795 135.219C284.324 136.378 285.052 137.258 285.98 137.859C286.906 138.453 287.974 138.749 289.184 138.749C290.393 138.749 291.461 138.453 292.389 137.859C293.315 137.258 294.039 136.378 294.562 135.219C295.091 134.053 295.353 132.626 295.353 130.939ZM312.286 142.063H304.746V119.815H312.437C314.647 119.815 316.544 120.26 318.129 121.151C319.723 122.034 320.947 123.305 321.802 124.964C322.656 126.622 323.084 128.607 323.084 130.917C323.084 133.235 322.652 135.226 321.79 136.892C320.936 138.558 319.702 139.836 318.086 140.726C316.478 141.617 314.545 142.063 312.286 142.063ZM308.776 138.576H312.09C313.64 138.576 314.932 138.293 315.967 137.728C317.003 137.156 317.782 136.305 318.303 135.175C318.826 134.038 319.086 132.619 319.086 130.917C319.086 129.215 318.826 127.803 318.303 126.68C317.782 125.551 317.011 124.707 315.99 124.149C314.975 123.584 313.716 123.302 312.21 123.302H308.776V138.576ZM337.561 119.815H342.493L349.097 135.936H349.357L355.963 119.815H360.895V142.063H357.028V126.778H356.821L350.672 141.998H347.782L341.633 126.746H341.428V142.063H337.561V119.815ZM369.669 142.063H365.368L373.2 119.815H378.175L386.019 142.063H381.718L375.775 124.377H375.602L369.669 142.063ZM369.812 133.34H381.544V136.577H369.812V133.34ZM408.762 119.815V142.063H405.178L394.694 126.908H394.51V142.063H390.48V119.815H394.086L404.558 134.98H404.754V119.815H408.762ZM417.54 142.063H413.239L421.071 119.815H426.046L433.89 142.063H429.587L423.646 124.377H423.473L417.54 142.063ZM417.681 133.34H429.413V136.577H417.681V133.34ZM452.208 126.919C452.028 126.333 451.778 125.808 451.459 125.344C451.147 124.873 450.771 124.471 450.329 124.138C449.895 123.805 449.394 123.555 448.83 123.389C448.266 123.215 447.65 123.128 446.982 123.128C445.788 123.128 444.723 123.429 443.789 124.03C442.855 124.631 442.121 125.514 441.583 126.68C441.056 127.839 440.792 129.251 440.792 130.917C440.792 132.597 441.056 134.02 441.583 135.186C442.112 136.352 442.848 137.24 443.789 137.848C444.731 138.449 445.825 138.749 447.069 138.749C448.2 138.749 449.177 138.532 450.002 138.098C450.835 137.663 451.478 137.047 451.926 136.251C452.375 135.447 452.6 134.506 452.6 133.426L453.512 133.568H447.472V130.417H456.499V133.09C456.499 134.994 456.093 136.642 455.283 138.032C454.471 139.423 453.357 140.495 451.937 141.248C450.517 141.994 448.888 142.367 447.048 142.367C444.998 142.367 443.2 141.907 441.649 140.987C440.108 140.06 438.9 138.746 438.032 137.044C437.17 135.335 436.738 133.307 436.738 130.96C436.738 129.164 436.993 127.56 437.499 126.148C438.014 124.736 438.731 123.537 439.651 122.552C440.571 121.56 441.649 120.807 442.888 120.293C444.126 119.771 445.473 119.51 446.929 119.51C448.16 119.51 449.308 119.692 450.372 120.054C451.437 120.409 452.381 120.915 453.208 121.575C454.041 122.234 454.725 123.016 455.26 123.921C455.798 124.826 456.147 125.826 456.315 126.919H452.208ZM461.926 142.063V119.815H476.395V123.193H465.957V129.233H475.647V132.612H465.957V138.684H476.482V142.063H461.926ZM482.038 142.063V119.815H490.38C492.09 119.815 493.524 120.112 494.682 120.705C495.848 121.299 496.728 122.132 497.321 123.204C497.923 124.269 498.224 125.511 498.224 126.93C498.224 128.357 497.921 129.595 497.311 130.645C496.709 131.688 495.823 132.496 494.651 133.068C493.477 133.633 492.036 133.915 490.327 133.915H484.384V130.569H489.783C490.783 130.569 491.6 130.432 492.239 130.157C492.875 129.874 493.346 129.465 493.65 128.929C493.962 128.386 494.117 127.719 494.117 126.93C494.117 126.141 493.962 125.467 493.65 124.91C493.338 124.345 492.865 123.917 492.228 123.628C491.59 123.331 490.769 123.182 489.76 123.182H486.069V142.063H482.038ZM493.53 131.982L499.039 142.063H494.541L489.132 131.982H493.53Z" fill="#D32E16"/>
</svg>
